# xmcd
#
# Track frame offsets: 
#        180
#        15957
#        29912
#        43691
#        57364
#        72588
#        87379
#        101191
#        113600
#        128819
#        141172
#        154058
#        167948
#        181223
#        193650
#        207293
#        221444
#        236406
#
# Disc length: 3324 seconds
#
# Revision: 0
# Processed by: cddbd v1.5.2PL0 Copyright (c) Steve Scherf et al.
# Submitted via: ExactAudioCopyFreeDBPlugin 1.0
#
DISCID=060cfa12
DTITLE=Berthe Sylva - Les roses blanches
DYEAR=1998
DGENRE=Chanson
TTITLE0=Les roses blanches
TTITLE1=Du gris
TTITLE2=On n'a pas tous les jour vingts ans
TTITLE3=Mon vieux pataud
TTITLE4=Le petit boscot
TTITLE5=Le tango des fauvettes
TTITLE6=Frou frou
TTITLE7=Si l'on pouvait arreter les aiguilles
TTITLE8=coeur de voyou
TTITLE9=Ou sont tous mes amants
TTITLE10=c'est un mauvais garcon
TTITLE11=tel qu'il est
TTITLE12=Le petit ballon rouge
TTITLE13=Les nuits
TTITLE14=Les momes de la cloche
TTITLE15=Je n'ai qu'une maman
TTITLE16=La legende des flots bleus
TTITLE17=Le raccommodeur de faience
EXTD=
EXTT0=
EXTT1=
EXTT2=
EXTT3=
EXTT4=
EXTT5=
EXTT6=
EXTT7=
EXTT8=
EXTT9=
EXTT10=
EXTT11=
EXTT12=
EXTT13=
EXTT14=
EXTT15=
EXTT16=
EXTT17=
PLAYORDER=
